<svg width="107" height="117" viewBox="0 0 107 117" fill="none" xmlns="http://www.w3.org/2000/svg">
<path d="M11.5586 12.6104V14.4795H0.837891V12.6104H11.5586ZM7.19727 8.04492V19.4316H5.20996V8.04492H7.19727Z" fill="#FCC12D"/>
<path d="M11.5586 36.8574V38.7266H0.837891V36.8574H11.5586ZM7.19727 32.292V43.6787H5.20996V32.292H7.19727Z" fill="#E5E5E5"/>
<path d="M11.5586 61.1045V62.9736H0.837891V61.1045H11.5586ZM7.19727 56.5391V67.9258H5.20996V56.5391H7.19727Z" fill="#E5E5E5"/>
<path d="M35.3103 12.6104V14.4795H24.5896V12.6104H35.3103ZM30.949 8.04492V19.4316H28.9617V8.04492H30.949Z" fill="#E5E5E5"/>
<path d="M35.3103 36.8574V38.7266H24.5896V36.8574H35.3103ZM30.949 32.292V43.6787H28.9617V32.292H30.949Z" fill="#E5E5E5"/>
<path d="M35.3103 61.1045V62.9736H24.5896V61.1045H35.3103ZM30.949 56.5391V67.9258H28.9617V56.5391H30.949Z" fill="#E5E5E5"/>
<path d="M35.3103 85.3516V87.2207H24.5896V85.3516H35.3103ZM30.949 80.7861V92.1729H28.9617V80.7861H30.949Z" fill="#E5E5E5"/>
<path d="M59.062 12.6104V14.4795H48.3413V12.6104H59.062ZM54.7007 8.04492V19.4316H52.7134V8.04492H54.7007Z" fill="#E5E5E5"/>
<path d="M59.062 36.8574V38.7266H48.3413V36.8574H59.062ZM54.7007 32.292V43.6787H52.7134V32.292H54.7007Z" fill="#E5E5E5"/>
<path d="M59.062 61.1045V62.9736H48.3413V61.1045H59.062ZM54.7007 56.5391V67.9258H52.7134V56.5391H54.7007Z" fill="#751EB8"/>
<path d="M59.062 85.3516V87.2207H48.3413V85.3516H59.062ZM54.7007 80.7861V92.1729H52.7134V80.7861H54.7007Z" fill="#E5E5E5"/>
<path d="M59.062 109.598V111.467H48.3413V109.598H59.062ZM54.7007 105.033V116.419H52.7134V105.033H54.7007Z" fill="#E5E5E5"/>
<path d="M82.8137 12.6104V14.4795H72.093V12.6104H82.8137ZM78.4524 8.04492V19.4316H76.4651V8.04492H78.4524Z" fill="#E5E5E5"/>
<path d="M82.8137 36.8574V38.7266H72.093V36.8574H82.8137ZM78.4524 32.292V43.6787H76.4651V32.292H78.4524Z" fill="#E5E5E5"/>
<path d="M82.8137 61.1045V62.9736H72.093V61.1045H82.8137ZM78.4524 56.5391V67.9258H76.4651V56.5391H78.4524Z" fill="#E5E5E5"/>
<path d="M82.8137 85.3516V87.2207H72.093V85.3516H82.8137ZM78.4524 80.7861V92.1729H76.4651V80.7861H78.4524Z" fill="#E5E5E5"/>
<path d="M82.8137 109.598V111.467H72.093V109.598H82.8137ZM78.4524 105.033V116.419H76.4651V105.033H78.4524Z" fill="#E5E5E5"/>
<path d="M106.566 12.6104V14.4795H95.8448V12.6104H106.566ZM102.204 8.04492V19.4316H100.217V8.04492H102.204Z" fill="#E5E5E5"/>
<path d="M106.566 36.8574V38.7266H95.8448V36.8574H106.566ZM102.204 32.292V43.6787H100.217V32.292H102.204Z" fill="#E5E5E5"/>
<path d="M106.566 61.1045V62.9736H95.8448V61.1045H106.566ZM102.204 56.5391V67.9258H100.217V56.5391H102.204Z" fill="#E5E5E5"/>
<path d="M106.566 85.3516V87.2207H95.8448V85.3516H106.566ZM102.204 80.7861V92.1729H100.217V80.7861H102.204Z" fill="#E5E5E5"/>
<path d="M106.566 109.598V111.467H95.8448V109.598H106.566ZM102.204 105.033V116.419H100.217V105.033H102.204Z" fill="#E5E5E5"/>
</svg>
