<svg width="107" height="117" viewBox="0 0 107 117" fill="none" xmlns="http://www.w3.org/2000/svg">
<path d="M95.2 104.39V102.521H105.921V104.39H95.2ZM99.5613 108.955V97.5684H101.549V108.955H99.5613Z" fill="#FCC12D"/>
<path d="M95.2 80.1426V78.2734H105.921V80.1426H95.2ZM99.5613 84.708V73.3213H101.549V84.708H99.5613Z" fill="#E5E5E5"/>
<path d="M95.2 55.8955V54.0264H105.921V55.8955H95.2ZM99.5613 60.4609V49.0742H101.549V60.4609H99.5613Z" fill="#E5E5E5"/>
<path d="M71.4482 104.39V102.521H82.1689V104.39H71.4482ZM75.8096 108.955V97.5684H77.7969V108.955H75.8096Z" fill="#E5E5E5"/>
<path d="M71.4482 80.1426V78.2734H82.1689V80.1426H71.4482ZM75.8096 84.708V73.3213H77.7969V84.708H75.8096Z" fill="#E5E5E5"/>
<path d="M71.4482 55.8955V54.0264H82.1689V55.8955H71.4482ZM75.8096 60.4609V49.0742H77.7969V60.4609H75.8096Z" fill="#E5E5E5"/>
<path d="M71.4482 31.6487V29.7795H82.1689V31.6487H71.4482ZM75.8096 36.2141V24.8274H77.7969V36.2141H75.8096Z" fill="#E5E5E5"/>
<path d="M47.6965 104.39V102.521H58.4172V104.39H47.6965ZM52.0579 108.955V97.5684H54.0452V108.955H52.0579Z" fill="#E5E5E5"/>
<path d="M47.6965 80.1426V78.2734H58.4172V80.1426H47.6965ZM52.0579 84.708V73.3213H54.0452V84.708H52.0579Z" fill="#E5E5E5"/>
<path d="M47.6965 55.8955V54.0264H58.4172V55.8955H47.6965ZM52.0579 60.4609V49.0742H54.0452V60.4609H52.0579Z" fill="#751EB8"/>
<path d="M47.6965 31.6487V29.7795H58.4172V31.6487H47.6965ZM52.0579 36.2141V24.8274H54.0452V36.2141H52.0579Z" fill="#E5E5E5"/>
<path d="M47.6965 7.40186V5.53271L58.4172 5.53271V7.40186L47.6965 7.40186ZM52.0579 11.9673V0.580566H54.0452V11.9673H52.0579Z" fill="#E5E5E5"/>
<path d="M23.9448 104.39V102.521H34.6655V104.39H23.9448ZM28.3062 108.955L28.3062 97.5684H30.2935L30.2935 108.955H28.3062Z" fill="#E5E5E5"/>
<path d="M23.9448 80.1426V78.2734H34.6655V80.1426H23.9448ZM28.3062 84.708L28.3062 73.3213H30.2935L30.2935 84.708H28.3062Z" fill="#E5E5E5"/>
<path d="M23.9448 55.8955V54.0264H34.6655V55.8955H23.9448ZM28.3062 60.4609L28.3062 49.0742H30.2935L30.2935 60.4609H28.3062Z" fill="#E5E5E5"/>
<path d="M23.9448 31.6487V29.7795H34.6655V31.6487H23.9448ZM28.3062 36.2141L28.3062 24.8274H30.2935L30.2935 36.2141H28.3062Z" fill="#E5E5E5"/>
<path d="M23.9448 7.40186V5.53271L34.6655 5.53271V7.40186L23.9448 7.40186ZM28.3062 11.9673L28.3062 0.580566H30.2935L30.2935 11.9673H28.3062Z" fill="#E5E5E5"/>
<path d="M0.193054 104.39V102.521H10.9138V104.39H0.193054ZM4.55438 108.955L4.55438 97.5684H6.54169L6.54169 108.955H4.55438Z" fill="#E5E5E5"/>
<path d="M0.193054 80.1426V78.2734H10.9138V80.1426H0.193054ZM4.55438 84.708L4.55438 73.3213H6.54169L6.54169 84.708H4.55438Z" fill="#E5E5E5"/>
<path d="M0.193054 55.8958V54.0266H10.9138V55.8958H0.193054ZM4.55438 60.4612L4.55438 49.0745H6.54169L6.54169 60.4612H4.55438Z" fill="#E5E5E5"/>
<path d="M0.193054 31.6487V29.7795H10.9138V31.6487H0.193054ZM4.55438 36.2141L4.55438 24.8274H6.54169L6.54169 36.2141H4.55438Z" fill="#E5E5E5"/>
<path d="M0.193054 7.40161V5.53247L10.9138 5.53247V7.40161L0.193054 7.40161ZM4.55438 11.967L4.55438 0.580322H6.54169L6.54169 11.967H4.55438Z" fill="#E5E5E5"/>
</svg>
